<mxfile host="65bd71144e">
    <diagram id="44l9mHusMp0AXN1jFbcd" name="Page-1">
        <mxGraphModel dx="379" dy="568" grid="1" gridSize="10" guides="1" tooltips="1" connect="1" arrows="1" fold="1" page="1" pageScale="1" pageWidth="850" pageHeight="1100" math="0" shadow="0">
            <root>
                <mxCell id="0"/>
                <mxCell id="1" parent="0"/>
                <mxCell id="2" value="" style="rounded=0;whiteSpace=wrap;html=1;fillColor=#dae8fc;strokeColor=#6c8ebf;gradientColor=#7ea6e0;" parent="1" vertex="1">
                    <mxGeometry x="10" y="70" width="600" height="400" as="geometry"/>
                </mxCell>
                <mxCell id="3" value="Weather Dashboard" style="rounded=0;whiteSpace=wrap;html=1;fillColor=#d5e8d4;gradientColor=#97d077;strokeColor=#82b366;" parent="1" vertex="1">
                    <mxGeometry x="10" y="70" width="600" height="40" as="geometry"/>
                </mxCell>
                <mxCell id="4" value="City(Date)&lt;br&gt;Temperature&lt;br&gt;Wind&lt;br&gt;Humidity" style="rounded=0;whiteSpace=wrap;html=1;fillColor=none;" parent="1" vertex="1">
                    <mxGeometry x="210" y="130" width="360" height="60" as="geometry"/>
                </mxCell>
                <mxCell id="5" value="" style="rounded=0;whiteSpace=wrap;html=1;fillColor=none;" parent="1" vertex="1">
                    <mxGeometry x="20" y="120" width="150" height="310" as="geometry"/>
                </mxCell>
                <mxCell id="6" value="Search for a city" style="text;html=1;strokeColor=none;fillColor=none;align=center;verticalAlign=middle;whiteSpace=wrap;rounded=0;" parent="1" vertex="1">
                    <mxGeometry x="20" y="120" width="100" height="30" as="geometry"/>
                </mxCell>
                <mxCell id="7" value="History 5" style="text;html=1;strokeColor=none;fillColor=none;align=center;verticalAlign=middle;whiteSpace=wrap;rounded=0;" parent="1" vertex="1">
                    <mxGeometry x="61" y="360" width="60" height="30" as="geometry"/>
                </mxCell>
                <mxCell id="8" value="History 4" style="text;html=1;strokeColor=none;fillColor=none;align=center;verticalAlign=middle;whiteSpace=wrap;rounded=0;" parent="1" vertex="1">
                    <mxGeometry x="60" y="320" width="60" height="30" as="geometry"/>
                </mxCell>
                <mxCell id="9" value="History 3" style="text;html=1;strokeColor=none;fillColor=none;align=center;verticalAlign=middle;whiteSpace=wrap;rounded=0;" parent="1" vertex="1">
                    <mxGeometry x="60" y="280" width="60" height="30" as="geometry"/>
                </mxCell>
                <mxCell id="10" value="History 2" style="text;html=1;strokeColor=none;fillColor=none;align=center;verticalAlign=middle;whiteSpace=wrap;rounded=0;" parent="1" vertex="1">
                    <mxGeometry x="60" y="240" width="60" height="30" as="geometry"/>
                </mxCell>
                <mxCell id="11" value="History 1" style="text;html=1;strokeColor=none;fillColor=none;align=center;verticalAlign=middle;whiteSpace=wrap;rounded=0;" parent="1" vertex="1">
                    <mxGeometry x="60" y="200" width="60" height="30" as="geometry"/>
                </mxCell>
                <mxCell id="13" value="5 Day forecast" style="text;html=1;strokeColor=none;fillColor=none;align=center;verticalAlign=middle;whiteSpace=wrap;rounded=0;" parent="1" vertex="1">
                    <mxGeometry x="210" y="220" width="100" height="30" as="geometry"/>
                </mxCell>
                <mxCell id="14" value="Search" style="rounded=0;whiteSpace=wrap;html=1;fillColor=#f5f5f5;gradientColor=#b3b3b3;strokeColor=#666666;fontColor=#000000;" parent="1" vertex="1">
                    <mxGeometry x="26" y="150" width="130" height="20" as="geometry"/>
                </mxCell>
                <mxCell id="15" value="Submit" style="rounded=0;whiteSpace=wrap;html=1;fillColor=#d5e8d4;gradientColor=#97d077;strokeColor=#82b366;" parent="1" vertex="1">
                    <mxGeometry x="55" y="180" width="70" height="20" as="geometry"/>
                </mxCell>
                <mxCell id="16" value="Day 1" style="rounded=0;whiteSpace=wrap;html=1;fillColor=#d5e8d4;gradientColor=#97d077;strokeColor=#82b366;" parent="1" vertex="1">
                    <mxGeometry x="210" y="260" width="60" height="90" as="geometry"/>
                </mxCell>
                <mxCell id="17" value="Day 2" style="rounded=0;whiteSpace=wrap;html=1;fillColor=#d5e8d4;gradientColor=#97d077;strokeColor=#82b366;" parent="1" vertex="1">
                    <mxGeometry x="280" y="260" width="60" height="90" as="geometry"/>
                </mxCell>
                <mxCell id="18" value="Day 3" style="rounded=0;whiteSpace=wrap;html=1;fillColor=#d5e8d4;gradientColor=#97d077;strokeColor=#82b366;" parent="1" vertex="1">
                    <mxGeometry x="350" y="260" width="60" height="90" as="geometry"/>
                </mxCell>
                <mxCell id="19" value="Day 4" style="rounded=0;whiteSpace=wrap;html=1;fillColor=#d5e8d4;gradientColor=#97d077;strokeColor=#82b366;" parent="1" vertex="1">
                    <mxGeometry x="420" y="260" width="60" height="90" as="geometry"/>
                </mxCell>
                <mxCell id="20" value="Day 5" style="rounded=0;whiteSpace=wrap;html=1;fillColor=#d5e8d4;gradientColor=#97d077;strokeColor=#82b366;" parent="1" vertex="1">
                    <mxGeometry x="490" y="260" width="60" height="90" as="geometry"/>
                </mxCell>
            </root>
        </mxGraphModel>
    </diagram>
</mxfile>
